<?xml version="1.0" encoding="utf-8"?>
<svg version="1.1" id="Layer_1" xmlns="http://www.w3.org/2000/svg" xmlns:xlink="http://www.w3.org/1999/xlink" x="0px" y="0px"
	 viewBox="0 0 60 60" style="enable-background:new 0 0 60 60;" xml:space="preserve">
<style type="text/css">
	.st0{fill:url(#SVGID_1_);}
	.st1{opacity:0.3;fill:#D3E29D;}
	.st2{opacity:0.5;}
	.st3{clip-path:url(#SVGID_3_);fill:url(#SVGID_4_);}
	.st4{fill:#FFFFFF;stroke:#FFFFFF;stroke-width:0.8145;stroke-linejoin:round;stroke-miterlimit:10;}
	.st5{fill:none;stroke:#69B760;stroke-width:1.2344;stroke-linecap:round;stroke-linejoin:round;stroke-miterlimit:10;}
	.st6{fill:none;stroke:#69B760;stroke-width:1.114;stroke-linecap:round;stroke-linejoin:round;stroke-miterlimit:10;}
</style>
<g>
	<radialGradient id="SVGID_1_" cx="47.7159" cy="10.1455" r="46.2175" gradientUnits="userSpaceOnUse">
		<stop  offset="6.763949e-02" style="stop-color:#69B760"/>
		<stop  offset="0.2366" style="stop-color:#60B45C"/>
		<stop  offset="0.4766" style="stop-color:#42AB52"/>
		<stop  offset="0.7577" style="stop-color:#009E45"/>
		<stop  offset="0.9282" style="stop-color:#00963D"/>
	</radialGradient>
	<path class="st0" d="M59.8,30c0,16.4-13.3,29.8-29.8,29.8C13.5,59.8,0.2,46.4,0.2,30c0-4.4,0.9-8.5,2.6-12.2
		C7.5,7.4,17.9,0.2,30,0.2s22.5,7.2,27.2,17.6C58.8,21.5,59.8,25.6,59.8,30z"/>
	<path class="st1" d="M57.2,17.8C52.5,28.1,42.1,35.3,30,35.3S7.5,28.1,2.8,17.8C7.5,7.4,17.9,0.2,30,0.2S52.5,7.4,57.2,17.8z"/>
	<g class="st2">
		<defs>
			<path id="SVGID_2_" class="st2" d="M59.8,30.1c0,16.4-13.3,29.8-29.8,29.8c-16.4,0-29.8-13.3-29.8-29.8c0-4.4,0.9-8.5,2.6-12.2
				C7.6,7.5,18,0.3,30.1,0.3s22.5,7.2,27.2,17.6C58.9,21.6,59.8,25.7,59.8,30.1z"/>
		</defs>
		<clipPath id="SVGID_3_">
			<use xlink:href="#SVGID_2_"  style="overflow:visible;"/>
		</clipPath>
		<linearGradient id="SVGID_4_" gradientUnits="userSpaceOnUse" x1="26.4211" y1="28.7525" x2="52.2925" y2="54.6239">
			<stop  offset="7.304490e-02" style="stop-color:#003D21"/>
			<stop  offset="0.167" style="stop-color:#004023"/>
			<stop  offset="0.3004" style="stop-color:#004B29"/>
			<stop  offset="0.4574" style="stop-color:#005D32"/>
			<stop  offset="0.631" style="stop-color:#00773E"/>
			<stop  offset="0.8038" style="stop-color:#00964C"/>
		</linearGradient>
		<path class="st3" d="M14.2,46.2l8.6,15.3c0,0,16.6-0.1,17.5-0.7c0.9-0.6,13.2-6.9,13.8-8c0,0,5.6-14,5.3-14.6
			c-0.3-0.5-0.5-1-0.5-1L45.7,11.6l-11.4,9.2L14.2,46.2z"/>
	</g>
	<polygon class="st4" points="45.2,46 45.2,11.6 14.5,11.6 14.5,46 16.6,48 18.8,46 21,48 23.2,46 25.5,48 27.5,46.1 29.8,48.2 
		32.2,46 34.4,48.2 36.5,46 38.8,48.2 41,46 43.2,48 	"/>
	<line class="st5" x1="21.2" y1="20.3" x2="38.6" y2="20.3"/>
	<line class="st5" x1="21.2" y1="23.8" x2="38.6" y2="23.8"/>
	<line class="st5" x1="21.2" y1="27.4" x2="38.6" y2="27.4"/>
	<line class="st5" x1="21.2" y1="30.9" x2="27.7" y2="30.9"/>
	<line class="st5" x1="21.2" y1="34.4" x2="27.7" y2="34.4"/>
	<line class="st5" x1="21.2" y1="38" x2="27.7" y2="38"/>
	<path class="st6" d="M37.9,32.3c-0.7-0.6-1.6-0.8-2.3-0.5c-0.5,0.2-1.2,0.8-1.2,1.4c0,0.8,0.9,1.6,2.2,1.6c0,0,1.4,0.3,1.5,1.2
		s-0.2,1.5-1.4,1.8c-1.2,0.3-2.5-0.6-2.5-0.6"/>
	<line class="st6" x1="36.1" y1="30.7" x2="36.1" y2="38.8"/>
</g>
</svg>
