<?xml version="1.0" encoding="utf-8"?>
<svg version="1.1" id="Layer_1" xmlns="http://www.w3.org/2000/svg" xmlns:xlink="http://www.w3.org/1999/xlink" x="0px" y="0px"
	 viewBox="0 0 60 60" style="enable-background:new 0 0 60 60;" xml:space="preserve">
<style type="text/css">
	.st0{fill:url(#SVGID_1_);}
	.st1{opacity:0.3;fill:#B0CCFF;}
	.st2{opacity:0.6;}
	.st3{clip-path:url(#SVGID_3_);fill:url(#SVGID_4_);}
	.st4{fill:#FFFFFF;}
	.st5{fill:url(#SVGID_5_);stroke:url(#SVGID_6_);stroke-width:0.6171;stroke-miterlimit:10;}
	.st6{fill:url(#SVGID_7_);stroke:url(#SVGID_8_);stroke-width:0.6171;stroke-miterlimit:10;}
</style>
<g>
	<radialGradient id="SVGID_1_" cx="47.6862" cy="10.1005" r="46.2105" gradientUnits="userSpaceOnUse">
		<stop  offset="7.304490e-02" style="stop-color:#00BFE6"/>
		<stop  offset="0.2361" style="stop-color:#00B8E6"/>
		<stop  offset="0.4676" style="stop-color:#00A6E6"/>
		<stop  offset="0.7388" style="stop-color:#0087E5"/>
		<stop  offset="0.9336" style="stop-color:#006DE5"/>
	</radialGradient>
	<path class="st0" d="M59.7,30c0,16.4-13.3,29.8-29.8,29.8C13.5,59.7,0.2,46.4,0.2,30c0-4.4,0.9-8.5,2.6-12.2
		C7.5,7.4,17.9,0.2,30,0.2s22.5,7.2,27.2,17.5C58.8,21.5,59.7,25.6,59.7,30z"/>
	<path class="st1" d="M57.1,17.7C52.5,28.1,42,35.3,30,35.3S7.5,28.1,2.8,17.7C7.5,7.4,17.9,0.2,30,0.2S52.5,7.4,57.1,17.7z"/>
	<g class="st2">
		<defs>
			<path id="SVGID_2_" class="st2" d="M59.8,30c0,16.4-13.3,29.8-29.8,29.8C13.6,59.8,0.3,46.5,0.3,30c0-4.4,0.9-8.5,2.6-12.2
				C7.5,7.5,18,0.3,30,0.3s22.5,7.2,27.2,17.5C58.9,21.5,59.8,25.7,59.8,30z"/>
		</defs>
		<clipPath id="SVGID_3_">
			<use xlink:href="#SVGID_2_"  style="overflow:visible;"/>
		</clipPath>
		<linearGradient id="SVGID_4_" gradientUnits="userSpaceOnUse" x1="45.7148" y1="60.0132" x2="19.9923" y2="15.4605">
			<stop  offset="4.829242e-02" style="stop-color:#0073C2"/>
			<stop  offset="0.1168" style="stop-color:#006DBB"/>
			<stop  offset="0.2142" style="stop-color:#005EA9"/>
			<stop  offset="0.3193" style="stop-color:#00468D"/>
			<stop  offset="0.6355" style="stop-color:#19116B"/>
		</linearGradient>
		<path class="st3" d="M47.4,15.9c0.2,0.6,13.1,25.7,13.1,25.7S54,56.9,50.1,57.3s-15.4,4.7-20.3,4c-4.8-0.7-12.4-3.1-12.4-3.1
			l-5.5-10.3l0.7-25L11.9,22l8.4-6.7H30l11.5-0.7L47.4,15.9"/>
	</g>
	<path class="st4" d="M48,22h-36v-3.8c0-3,2.4-5.4,5.4-5.4h25.3c3,0,5.4,2.4,5.4,5.4V22z M22.5,15.3c-0.8,0-1.5,0.7-1.5,1.5
		c0,0.8,0.7,1.5,1.5,1.5c0.8,0,1.5-0.7,1.5-1.5C24,15.9,23.3,15.3,22.5,15.3z M37.2,15.3c-0.8,0-1.5,0.7-1.5,1.5
		c0,0.8,0.7,1.5,1.5,1.5c0.8,0,1.5-0.7,1.5-1.5C38.6,15.9,38,15.3,37.2,15.3z"/>
	<path class="st4" d="M23.7,15.6c0,0.6-0.5,1.1-1.1,1.1l0,0c-0.6,0-1.1-0.5-1.1-1.1v-3.3c0-0.6,0.5-1.1,1.1-1.1l0,0
		c0.6,0,1.1,0.5,1.1,1.1V15.6z"/>
	<path class="st4" d="M38.3,15.6c0,0.6-0.5,1.1-1.1,1.1l0,0c-0.6,0-1.1-0.5-1.1-1.1v-3.3c0-0.6,0.5-1.1,1.1-1.1l0,0
		c0.6,0,1.1,0.5,1.1,1.1V15.6z"/>
	<polygon class="st4" points="47.9,40.1 38.9,47.8 11.9,47.8 11.9,22.8 47.9,22.8 	"/>
	<rect x="11.9" y="21.6" class="st4" width="36" height="1.7"/>
	<g>
		<g>
			<linearGradient id="SVGID_5_" gradientUnits="userSpaceOnUse" x1="33.4771" y1="38.6384" x2="27.029" y2="27.4701">
				<stop  offset="0.1559" style="stop-color:#00468D"/>
				<stop  offset="0.487" style="stop-color:#19116B"/>
			</linearGradient>
			<linearGradient id="SVGID_6_" gradientUnits="userSpaceOnUse" x1="33.6963" y1="38.9985" x2="26.8267" y2="27.1001">
				<stop  offset="0.1559" style="stop-color:#00468D"/>
				<stop  offset="0.6405" style="stop-color:#19116B"/>
			</linearGradient>
			<path class="st5" d="M30.8,40.2v-1.8c1.8-0.3,2.8-1.6,2.8-3c0-1.6-0.9-2.5-2.7-3.2c-1.5-0.6-2.2-1.1-2.2-2c0-0.7,0.5-1.5,1.8-1.5
				c1.1,0,1.8,0.4,2.2,0.6l0.4-1.2c-0.5-0.3-1.2-0.6-2.3-0.6v-1.7h-1.1v1.8c-1.6,0.3-2.6,1.4-2.6,2.8c0,1.5,1.1,2.3,2.9,3
				c1.3,0.5,2,1.1,2,2.1c0,1-0.8,1.7-2.1,1.7c-1,0-1.9-0.3-2.5-0.8l-0.4,1.2c0.6,0.4,1.7,0.8,2.7,0.8v1.8H30.8z"/>
		</g>
	</g>
	<linearGradient id="SVGID_7_" gradientUnits="userSpaceOnUse" x1="35.1838" y1="42.4195" x2="24.625" y2="24.1313">
		<stop  offset="0.1559" style="stop-color:#00468D"/>
		<stop  offset="0.487" style="stop-color:#19116B"/>
	</linearGradient>
	<linearGradient id="SVGID_8_" gradientUnits="userSpaceOnUse" x1="35.338" y1="42.6868" x2="24.4708" y2="23.8641">
		<stop  offset="0.1559" style="stop-color:#00468D"/>
		<stop  offset="0.6405" style="stop-color:#19116B"/>
	</linearGradient>
	<path class="st6" d="M40.3,28.9c-1.4-3.3-4.5-5.8-8.1-6.3c0,0-0.1,0-0.1,0c-0.1,0-0.1,0-0.2,0c0,0-0.1,0-0.1,0
		c-2.9-0.4-5.8,0.5-8.1,2.3c-0.7,0.6-0.9,1.3-0.5,1.6c0.3,0.3,1,0.1,1.5-0.4c2.4-2,5.9-2.6,8.9-1.5c3,1.1,5.2,3.8,5.7,7
		c0.5,3.1-0.7,6.4-3.2,8.4c-1.8,1.5-4.2,2.2-6.6,2c0,0,0,0-0.1,0c-0.1,0-0.2,0-0.3,0c-3-0.4-5.7-2.5-6.9-5.3c0.1,0,0.3,0,0.4-0.1
		l0.5,0c0.7-0.1,0.8-0.4,0.3-0.7c-0.8-0.5-1.5-1.2-2-2.1c-0.4-0.6-0.9-0.6-1.2,0.1c-0.4,1.1-0.7,2.3-0.8,3.6c0,0.9,0.4,1.1,0.8,0.5
		l0.3-0.4c0.1-0.1,0.2-0.2,0.3-0.3c1,2.4,3,4.4,5.4,5.5c0.1,0.1,0.2,0.1,0.4,0.2c0.8,0.3,1.6,0.5,2.4,0.6c0,0,0,0,0.1,0
		c0,0,0,0,0.1,0c0.1,0,0.2,0,0.2,0c3.6,0.4,7.3-1.2,9.5-4.1C41.2,36.4,41.7,32.3,40.3,28.9z"/>
	<polygon class="st4" points="47.9,40.1 47.9,47.8 37.7,47.8 44.3,41.6 	"/>
</g>
</svg>
